<svg xmlns="http://www.w3.org/2000/svg" version="1.1" xmlns:xlink="http://www.w3.org/1999/xlink" xmlns:svgjs="http://svgjs.dev/svgjs" width="1500" height="1500" viewBox="0 0 1500 1500"><rect width="1500" height="1500" fill="#ffffff"></rect><g transform="matrix(0.6666666666666666,0,0,0.6666666666666666,249.37685881863666,642.7756641350694)"><svg viewBox="0 0 396 84" data-background-color="#ffffff" preserveAspectRatio="xMidYMid meet" height="318" width="1500" xmlns="http://www.w3.org/2000/svg" xmlns:xlink="http://www.w3.org/1999/xlink"><g id="tight-bounds" transform="matrix(1,0,0,1,0.24676390781985447,0.4851661975692707)"><svg viewBox="0 0 395.52 83.02971959179786" height="83.02971959179786" width="395.52"><g><svg viewBox="0 0 508.0789417397899 106.65870768394052" height="83.02971959179786" width="395.52"><g transform="matrix(1,0,0,1,112.5589417397899,0)"><svg viewBox="0 0 395.52 106.65870768394052" height="106.65870768394052" width="395.52"><g id="textblocktransform"><svg viewBox="0 0 395.52 106.65870768394052" height="106.65870768394052" width="395.52" id="textblock"><g><svg viewBox="0 0 395.52 106.65870768394052" height="106.65870768394052" width="395.52"><path d="M394.594 22.876C392.735 11.805 387.435 8.727 387.435 8.727 371.165-2.676 350.86-0.218 332.619 1.42 300.414 1.487 268.339 3.922 236.208 5.229 168.767 5.428 100.749 2.151 33.643 10.233 27.339 12.713-6.54 10.72 1.121 24.293 3.129 29.94 10.456 36.206 10.232 41.387 11.236 42.295 12.631 40.214 13.226 41.52 15.309 45.041 18.711 43.38 21.501 45.461 17.614 51.019 20.403 55.647 23.062 60.496 18.377 61.758 12.371 61.16 9.675 65.345 9.396 68.379 7.89 67.803 6.235 67.67 5.026 67.582 2.59 67.914 2.999 68.866 4.394 72.121-1.594 74.003 2.162 77.191-0.422 80.645 3.948 83.635 3.353 87.377 3.278 88.13 3.687 88.772 4.338 88.949 7.22 89.901 3.018 91.761 3.464 93.776 33.029 107.548 65.104 98.027 95.394 104.36 103.259 99.931 97.346 105.932 100.489 105.002 102.943 103.917 104.728 108.412 107.499 105.865 107.927 105.135 107.276 103.408 108.8 103.74 109.6 103.917 110.307 103.873 110.418 102.854 110.586 101.326 109.117 102.278 108.726 101.481 112.947 97.451 111.906 107.039 115.866 106.64 115.68 105.467 114.528 103.784 116.889 104.006 119.232 102.323 119.306 100.928 121.389 104.714 121.463 105.533 121.835 106.109 122.43 106.508 128.938 102.389 135.409 107.969 142.233 106.109 146.417 104.072 150.433 107.216 154.672 106.441 156.16 105.821 157.666 104.714 159.098 106.574 176.632 106.973 195.319 105.312 211.943 106.64 256.364 104.161 303.836 107.659 350.674 104.382 361.719 103.12 373.192 101.326 383.958 99.887 383.958 99.887 392.679 95.946 392.679 78.232S394.538 62.732 394.817 48.628C395.096 34.523 396.398 33.947 394.538 22.876Z" opacity="1" fill="#fab400" data-fill-palette-color="tertiary"></path><g transform="matrix(1,0,0,1,55.76832,26.230666666666664)"><svg width="283.98335999999995" viewBox="1.24375 -37.75 202.23624999999998 38.6" height="54.19737435060719" data-palette-color="#ffffff"><path d="M16.3-31L15.75-35.4Q14.8-35.8 13.8-35.8L13.8-35.8Q11.8-35.8 10.85-33.73 9.9-31.65 9.9-28L9.9-28 9.9-23.75 16.9-23.75Q16.9-23.15 16.78-22.4 16.65-21.65 16.4-21.25L16.4-21.25 9.9-21.25 9.9-2.5 14.75-1.5Q14.9-0.55 14.5 0.25L14.5 0.25Q13.6 0.2 12.28 0.15 10.95 0.1 9.65 0.05 8.35 0 7.4 0L7.4 0Q6 0 4.35 0.08 2.7 0.15 1.3 0.25L1.3 0.25Q1.15-0.7 1.4-1.5L1.4-1.5Q2.3-1.7 3.2-1.93 4.1-2.15 4.9-2.5L4.9-2.5 4.9-21.25 1.65-21.25Q1.6-21.75 1.78-22.63 1.95-23.5 2.15-23.75L2.15-23.75 4.9-23.75 4.9-26.75Q4.9-31.85 7.25-34.8 9.6-37.75 13.4-37.75L13.4-37.75Q15.4-37.75 16.68-37.43 17.95-37.1 19.3-36.25L19.3-36.25Q19.15-34.85 18.93-33.48 18.7-32.1 18.35-30.8L18.35-30.8Q18-30.75 17.35-30.78 16.7-30.8 16.3-31L16.3-31ZM42.75-24.95L42.75-2.4Q43.6-1.9 44.5-1.75 45.4-1.6 46.25-1.4L46.25-1.4Q46.4-0.5 46 0.35L46 0.35Q45.2 0.5 44.12 0.6 43.05 0.7 41.9 0.7L41.9 0.7Q40.3 0.7 39.1 0.4L39.1 0.4 38.25-3.3 38-3.3Q35.45-1 33.27-0.1 31.1 0.8 28.55 0.8L28.55 0.8Q24.95 0.8 23.37-1.2 21.8-3.2 21.8-6.7L21.8-6.7 21.8-22 18.15-22.4Q18-23.4 18.4-24.15L18.4-24.15Q20.2-24.4 21.77-24.75 23.35-25.1 24.9-25.5L24.9-25.5Q25.4-25.45 25.85-25.33 26.3-25.2 26.8-24.95L26.8-24.95 26.8-7.45Q26.8-5.35 27.42-4.35 28.05-3.35 29.1-3.03 30.15-2.7 31.5-2.7L31.5-2.7Q33.1-2.7 34.85-3.65 36.6-4.6 37.75-5.9L37.75-5.9 37.75-22 34.1-22.4Q33.95-23.4 34.35-24.15L34.35-24.15Q36.15-24.4 37.72-24.75 39.3-25.1 40.85-25.5L40.85-25.5Q41.35-25.45 41.8-25.33 42.25-25.2 42.75-24.95L42.75-24.95ZM57.09-16.85L57.09-2.5 61.95-1.5Q62.09-0.55 61.7 0.25L61.7 0.25Q60.8 0.2 59.47 0.15 58.14 0.1 56.84 0.05 55.55 0 54.59 0L54.59 0Q53.2 0 51.55 0.08 49.89 0.15 48.49 0.25L48.49 0.25Q48.34-0.7 48.59-1.5L48.59-1.5Q49.55-1.75 50.47-1.95 51.39-2.15 52.09-2.5L52.09-2.5 52.09-22 47.95-22.4Q47.8-23.4 48.2-24.15L48.2-24.15Q49.99-24.4 51.82-24.75 53.64-25.1 55.2-25.5L55.2-25.5Q55.7-25.45 56.02-25.33 56.34-25.2 56.84-24.95L56.84-24.95 56.84-20.4 56.89-20.35Q58.45-22.65 60.37-24.25 62.3-25.85 64.5-25.85L64.5-25.85Q65.34-25.85 66.17-25.73 67-25.6 67.8-25.1L67.8-25.1Q67.89-23.05 67.62-21.2 67.34-19.35 66.8-17.6L66.8-17.6Q66.44-17.55 65.69-17.57 64.94-17.6 64.55-17.8L64.55-17.8 63.84-22.8Q62.09-22.8 60.32-21.53 58.55-20.25 57.09-16.85L57.09-16.85ZM78.39-25.05L78.24-21.65 78.29-21.6Q80.69-24 83.24-24.9 85.79-25.8 87.69-25.8L87.69-25.8Q90.94-25.8 92.82-23.95 94.69-22.1 94.69-18.55L94.69-18.55 94.74-2.5 98.24-1.5Q98.39-0.55 97.99 0.25L97.99 0.25Q96.64 0.15 95.14 0.08 93.64 0 92.24 0L92.24 0Q90.84 0 89.29 0.08 87.74 0.15 86.34 0.25L86.34 0.25Q86.19-0.7 86.44-1.5L86.44-1.5Q87.44-1.7 88.22-1.95 88.99-2.2 89.74-2.5L89.74-2.5 89.74-16.3Q89.74-19.7 88.69-21 87.64-22.3 85.34-22.3L85.34-22.3Q83.49-22.3 81.74-21.58 79.99-20.85 78.64-19.3L78.64-19.3 78.64-2.5 81.99-1.5Q82.14-0.55 81.74 0.25L81.74 0.25Q80.39 0.15 78.97 0.08 77.54 0 76.14 0L76.14 0Q74.74 0 73.09 0.08 71.44 0.15 70.04 0.25L70.04 0.25Q69.89-0.7 70.14-1.5L70.14-1.5Q71.04-1.75 71.94-1.98 72.84-2.2 73.64-2.5L73.64-2.5 73.64-22 69.49-22.4Q69.34-23.4 69.74-24.15L69.74-24.15Q71.59-24.45 73.34-24.8 75.09-25.15 76.69-25.5L76.69-25.5Q77.54-25.45 78.39-25.05L78.39-25.05ZM108.99-24.95L108.99-2.5 112.34-1.5Q112.49-0.55 112.09 0.25L112.09 0.25Q110.74 0.15 109.32 0.08 107.89 0 106.49 0L106.49 0Q105.09 0 103.44 0.08 101.79 0.15 100.39 0.25L100.39 0.25Q100.24-0.7 100.49-1.5L100.49-1.5Q101.44-1.75 102.37-1.95 103.29-2.15 103.99-2.5L103.99-2.5 103.99-22 99.84-22.4Q99.69-23.4 100.09-24.15L100.09-24.15Q101.89-24.4 103.72-24.75 105.54-25.1 107.09-25.5L107.09-25.5Q107.59-25.45 108.04-25.33 108.49-25.2 108.99-24.95L108.99-24.95ZM105.64-30.05L105.64-30.05Q104.79-30.05 104.09-30.6 103.39-31.15 102.99-31.95 102.59-32.75 102.59-33.45L102.59-33.45Q102.59-34.1 103.14-34.77 103.69-35.45 104.52-35.93 105.34-36.4 106.14-36.4L106.14-36.4Q107.04-36.4 107.74-35.83 108.44-35.25 108.82-34.48 109.19-33.7 109.19-33L109.19-33Q109.19-32.35 108.67-31.65 108.14-30.95 107.32-30.5 106.49-30.05 105.64-30.05ZM123.44 0.8L123.44 0.8Q121.84 0.8 120.54 0.2 119.24-0.4 118.51-1.88 117.79-3.35 117.79-5.95L117.79-5.95 117.79-21.9 114.29-21.9Q113.99-22.45 113.96-23.03 113.94-23.6 114.04-24.15L114.04-24.15Q116.14-24.15 117.19-24.7 118.24-25.25 118.81-26.6 119.39-27.95 120.04-30.25L120.04-30.25 122.69-30.25 122.69-24.65 127.94-24.65Q128.64-23.2 127.94-21.9L127.94-21.9 122.69-21.9 122.69-7.2Q122.69-4.9 122.91-3.73 123.14-2.55 123.69-2.13 124.24-1.7 125.19-1.7L125.19-1.7Q125.99-1.7 126.74-2 127.49-2.3 128.19-2.7L128.19-2.7Q128.89-2.25 128.94-1.2L128.94-1.2Q128.39-0.55 126.94 0.13 125.49 0.8 123.44 0.8ZM154.59-24.95L154.59-2.4Q155.44-1.9 156.34-1.75 157.24-1.6 158.09-1.4L158.09-1.4Q158.24-0.5 157.84 0.35L157.84 0.35Q157.03 0.5 155.96 0.6 154.88 0.7 153.74 0.7L153.74 0.7Q152.13 0.7 150.94 0.4L150.94 0.4 150.09-3.3 149.84-3.3Q147.28-1 145.11-0.1 142.94 0.8 140.38 0.8L140.38 0.8Q136.78 0.8 135.21-1.2 133.63-3.2 133.63-6.7L133.63-6.7 133.63-22 129.99-22.4Q129.84-23.4 130.24-24.15L130.24-24.15Q132.03-24.4 133.61-24.75 135.19-25.1 136.74-25.5L136.74-25.5Q137.24-25.45 137.69-25.33 138.13-25.2 138.63-24.95L138.63-24.95 138.63-7.45Q138.63-5.35 139.26-4.35 139.88-3.35 140.94-3.03 141.99-2.7 143.34-2.7L143.34-2.7Q144.94-2.7 146.69-3.65 148.44-4.6 149.59-5.9L149.59-5.9 149.59-22 145.94-22.4Q145.78-23.4 146.19-24.15L146.19-24.15Q147.99-24.4 149.56-24.75 151.13-25.1 152.69-25.5L152.69-25.5Q153.19-25.45 153.63-25.33 154.09-25.2 154.59-24.95L154.59-24.95ZM168.93-16.85L168.93-2.5 173.78-1.5Q173.93-0.55 173.53 0.25L173.53 0.25Q172.63 0.2 171.31 0.15 169.98 0.1 168.68 0.05 167.38 0 166.43 0L166.43 0Q165.03 0 163.38 0.08 161.73 0.15 160.33 0.25L160.33 0.25Q160.18-0.7 160.43-1.5L160.43-1.5Q161.38-1.75 162.31-1.95 163.23-2.15 163.93-2.5L163.93-2.5 163.93-22 159.78-22.4Q159.63-23.4 160.03-24.15L160.03-24.15Q161.83-24.4 163.66-24.75 165.48-25.1 167.03-25.5L167.03-25.5Q167.53-25.45 167.86-25.33 168.18-25.2 168.68-24.95L168.68-24.95 168.68-20.4 168.73-20.35Q170.28-22.65 172.21-24.25 174.13-25.85 176.33-25.85L176.33-25.85Q177.18-25.85 178.01-25.73 178.83-25.6 179.63-25.1L179.63-25.1Q179.73-23.05 179.46-21.2 179.18-19.35 178.63-17.6L178.63-17.6Q178.28-17.55 177.53-17.57 176.78-17.6 176.38-17.8L176.38-17.8 175.68-22.8Q173.93-22.8 172.16-21.53 170.38-20.25 168.93-16.85L168.93-16.85ZM187.63-13.5L187.63-12.5Q187.63-7.45 189.66-4.67 191.68-1.9 195.18-1.9L195.18-1.9Q196.73-1.9 197.78-2.08 198.83-2.25 199.86-2.75 200.88-3.25 202.18-4.15L202.18-4.15Q202.98-3.8 203.08-2.95L203.08-2.95Q201.53-1.15 199.38-0.15 197.23 0.85 195.03 0.85L195.03 0.85Q191.23 0.85 188.38-0.75 185.53-2.35 183.93-5.35 182.33-8.35 182.33-12.5L182.33-12.5Q182.33-16.75 184.01-19.73 185.68-22.7 188.51-24.28 191.33-25.85 194.78-25.85L194.78-25.85Q199.23-25.85 201.36-22.88 203.48-19.9 203.48-15.2L203.48-15.2Q203.48-14.85 203.48-14.55 203.48-14.25 203.43-13.9L203.43-13.9 202.73-13.35 187.63-13.5ZM194.73-23.7L194.73-23.7Q193.28-23.7 191.86-22.8 190.43-21.9 189.33-20.1 188.23-18.3 187.83-15.55L187.83-15.55 198.73-16.15Q198.73-20 197.91-21.85 197.08-23.7 194.73-23.7Z" opacity="1" transform="matrix(1,0,0,1,0,0)" fill="#ffffff" class="wordmark-text-0" data-fill-palette-color="quaternary" id="text-0"></path></svg></g></svg></g></svg></g></svg></g><g transform="matrix(1,0,0,1,0,4.19524250223499)"><svg viewBox="0 0 99.76424239259596 98.26822267947054" height="98.26822267947054" width="99.76424239259596"><g><svg xmlns="http://www.w3.org/2000/svg" xmlns:xlink="http://www.w3.org/1999/xlink" version="1.1" x="0" y="0" viewBox="16.291 16.795 67.42 66.40899999999999" style="enable-background:new 0 0 100 100;" xml:space="preserve" height="98.26822267947054" width="99.76424239259596" class="icon-icon-0" data-fill-palette-color="accent" id="icon-0"><rect x="29.52" y="56.723" width="40.998" height="8.658" fill="#fab400" data-fill-palette-color="accent"></rect><path d="M20.862 38.444H24.508A5.017 5.017 0 0 1 29.52 43.456V54.239H70.518V43.456A5.016 5.016 0 0 1 75.53 38.444H79.151C79.131 35.58 79.134 31.465 79.151 27.96L79.106 27.855C76.266 21.156 64.295 16.795 49.903 16.795S23.743 21.155 20.904 27.855L20.849 28C20.87 31.136 20.874 35.438 20.862 38.444" fill="#fab400" data-fill-palette-color="accent"></path><path d="M81.436 41.177H75.512A2.285 2.285 0 0 0 73.235 43.456V67.714H26.771V43.456A2.287 2.287 0 0 0 24.492 41.177H18.57A2.29 2.29 0 0 0 16.291 43.456V75.916A2.286 2.286 0 0 0 18.57 78.193H81.436A2.284 2.284 0 0 0 83.711 75.916V43.456A2.286 2.286 0 0 0 81.436 41.177" fill="#fab400" data-fill-palette-color="accent"></path><path d="M28.586 79.195H24.954C24.038 79.195 23.298 80.092 23.298 81.201 23.298 82.305 24.038 83.204 24.954 83.204H28.586C29.499 83.204 30.24 82.307 30.24 81.201S29.499 79.195 28.586 79.195" fill="#fab400" data-fill-palette-color="accent"></path><path d="M75.048 79.195H71.419C70.503 79.195 69.762 80.092 69.762 81.201 69.762 82.305 70.503 83.204 71.419 83.204H75.048C75.961 83.204 76.702 82.307 76.702 81.201S75.961 79.195 75.048 79.195" fill="#fab400" data-fill-palette-color="accent"></path></svg></g></svg></g></svg></g><defs></defs></svg><rect width="395.52" height="83.02971959179786" fill="none" stroke="none" visibility="hidden"></rect></g></svg></g></svg>